<?xml version="1.0" encoding="utf-8"?>
<!-- Generator: Adobe Illustrator 22.1.0, SVG Export Plug-In . SVG Version: 6.00 Build 0)  -->
<svg version="1.1" id="Layer_1" xmlns="http://www.w3.org/2000/svg" xmlns:xlink="http://www.w3.org/1999/xlink" x="0px" y="0px"
	 viewBox="0 0 1700.8 1133.9" style="enable-background:new 0 0 1700.8 1133.9;" xml:space="preserve">
<style type="text/css">
	.st0{clip-path:url(#SVGID_2_);}
	.st1{fill:none;stroke:#FF0000;stroke-linecap:round;stroke-linejoin:round;stroke-miterlimit:10;}
</style>
<g>
	<defs>
		<rect id="SVGID_1_" x="137.4" y="0" width="1563.4" height="1133.9"/>
	</defs>
	<clipPath id="SVGID_2_">
		<use xlink:href="#SVGID_1_"  style="overflow:visible;"/>
	</clipPath>
	<g class="st0">
		<path class="st1" d="M1107.1,983.2c148.8,0,270.8-115.2,283-261.8c1.2-14,0.2-28.1-2.8-41.8l-13.2-61.3l-4.4-52.5
			c0-2.4,1.2-3.1,3.5-3.1h0.3c3.4,0,3,2.3,2.9,4.5c-0.1,2.7-0.1,1.2-0.1,2.9c-0.1,7-0.9,7.8-0.8,14.3c0,1,0,2,0.3,3
			c0.5,1.9,2,2.6,3.9,2.1c1-0.2,1.6-1.3,1.8-2.3c2.8-10.2,7.5-25.8,7.5-36c0-4.7-8.9-7.4-13.5-7.4h-12.8c-3.9,0-7.1,3.2-7.1,7.1
			l-4.2,67.3h0c0,134.3-110.9,243.1-244.2,243.1"/>
		<path class="st1" d="M1107.1,983.2c-148.8,0-270.8-115.2-283-261.8c-1.2-14-0.2-28.1,2.8-41.8l13.2-61.3l4.4-52.5
			c0-2.4-1.2-3.1-3.5-3.1h-0.3c-3.4,0-3,2.3-2.9,4.5c0.1,2.7,0.1,1.2,0.1,2.9c0.1,7,0.9,7.8,0.8,14.3c0,1,0,2-0.3,3
			c-0.5,1.9-2,2.6-3.9,2.1c-1-0.2-1.6-1.3-1.8-2.3c-2.8-10.2-7.5-25.8-7.5-36c0-4.7,8.9-7.4,13.5-7.4h12.8c3.9,0,7.1,3.2,7.1,7.1
			l4.2,67.3h0c0,134.3,110.9,243.1,244.2,243.1"/>
	</g>
	<g class="st0">
		<path class="st1" d="M1107.1,967.4c71.7,0,139.1-28.1,189.8-79.2c50.7-51,78.6-118.9,78.6-191.1v-8.6h1.4v8.6
			c0,72.6-28.1,140.8-79,192.1c-51,51.3-118.7,79.6-190.8,79.6"/>
		<path class="st1" d="M1107.1,967.4c-71.7,0-139.1-28.1-189.8-79.2c-50.7-51-78.6-118.9-78.6-191.1v-8.6h-1.4v8.6
			c0,72.6,28.1,140.8,79,192.1c51,51.3,118.7,79.6,190.8,79.6"/>
	</g>
</g>
</svg>
