  0
SECTION
  2
HEADER
  9
$ACADVER
  1
AC1014
  9
$HANDSEED
  5
FFFF
  9
$MEASUREMENT
 70
     1
  0
ENDSEC
  0
SECTION
  2
TABLES
  0
TABLE
  2
VPORT
  5
8
330
0
100
AcDbSymbolTable
 70
     4
  0
VPORT
  5
2E
330
8
100
AcDbSymbolTableRecord
100
AcDbViewportTableRecord
  2
*ACTIVE
 70
     0
 10
0.0
 20
0.0
 11
1.0
 21
1.0
 12
210.0
 22
148.5
 13
0.0
 23
0.0
 14
10.0
 24
10.0
 15
10.0
 25
10.0
 16
0.0
 26
0.0
 36
1.0
 17
0.0
 27
0.0
 37
0.0
 40
341.0
 41
1.24
 42
50.0
 43
0.0
 44
0.0
 50
0.0
 51
0.0
 71
     0
 72
   100
 73
     1
 74
     3
 75
     0
 76
     0
 77
     0
 78
     0
  0
ENDTAB
  0
TABLE
  2
LTYPE
  5
5
330
0
100
AcDbSymbolTable
 70
     1
  0
LTYPE
  5
14
330
5
100
AcDbSymbolTableRecord
100
AcDbLinetypeTableRecord
  2
BYBLOCK
 70
     0
  3

 72
    65
 73
     0
 40
0.0
  0
LTYPE
  5
15
330
5
100
AcDbSymbolTableRecord
100
AcDbLinetypeTableRecord
  2
BYLAYER
 70
     0
  3

 72
    65
 73
     0
 40
0.0
  0
LTYPE
  5
16
330
5
100
AcDbSymbolTableRecord
100
AcDbLinetypeTableRecord
  2
CONTINUOUS
 70
     0
  3
Solid line
 72
    65
 73
     0
 40
0.0
  0
ENDTAB
  0
TABLE
  2
LAYER
  5
2
100
AcDbSymbolTable
 70
2
  0
LAYER
  5
50
100
AcDbSymbolTableRecord
100
AcDbLayerTableRecord
  2
0
 70
0
  6
CONTINUOUS
  0
LAYER
  5
51
100
AcDbSymbolTableRecord
100
AcDbLayerTableRecord
  2
faceshield_v3_Jin
 70
0
  6
CONTINUOUS
  0
ENDTAB
  0
TABLE
  2
STYLE
  5
3
330
0
100
AcDbSymbolTable
 70
     1
  0
STYLE
  5
11
330
3
100
AcDbSymbolTableRecord
100
AcDbTextStyleTableRecord
  2
STANDARD
 70
     0
 40
0.0
 41
1.0
 50
0.0
 71
     0
 42
2.5
  3
txt
  4

  0
ENDTAB
  0
TABLE
  2
VIEW
  5
6
330
0
100
AcDbSymbolTable
 70
     0
  0
ENDTAB
  0
TABLE
  2
UCS
  5
7
330
0
100
AcDbSymbolTable
 70
     0
  0
ENDTAB
  0
TABLE
  2
APPID
  5
9
330
0
100
AcDbSymbolTable
 70
     2
  0
APPID
  5
12
330
9
100
AcDbSymbolTableRecord
100
AcDbRegAppTableRecord
  2
ACAD
 70
     0
  0
ENDTAB
  0
TABLE
  2
DIMSTYLE
  5
A
330
0
100
AcDbSymbolTable
 70
     1
  0
DIMSTYLE
105
27
330
A
100
AcDbSymbolTableRecord
100
AcDbDimStyleTableRecord
  2
ISO-25
 70
     0
  3

  4

  5

  6

  7

 40
1.0
 41
2.5
 42
0.625
 43
3.75
 44
1.25
 45
0.0
 46
0.0
 47
0.0
 48
0.0
140
2.5
141
2.5
142
0.0
143
0.03937007874016
144
1.0
145
0.0
146
1.0
147
0.625
 71
     0
 72
     0
 73
     0
 74
     0
 75
     0
 76
     0
 77
     1
 78
     8
170
     0
171
     3
172
     1
173
     0
174
     0
175
     0
176
     0
177
     0
178
     0
270
     2
271
     2
272
     2
273
     2
274
     3
340
11
275
     0
280
     0
281
     0
282
     0
283
     0
284
     8
285
     0
286
     0
287
     3
288
     0
  0
ENDTAB
  0
TABLE
  2
BLOCK_RECORD
  5
1
330
0
100
AcDbSymbolTable
 70
     1
  0
BLOCK_RECORD
  5
1F
330
1
100
AcDbSymbolTableRecord
100
AcDbBlockTableRecord
  2
*MODEL_SPACE
  0
BLOCK_RECORD
  5
1B
330
1
100
AcDbSymbolTableRecord
100
AcDbBlockTableRecord
  2
*PAPER_SPACE
  0
ENDTAB
  0
ENDSEC
  0
SECTION
  2
BLOCKS
  0
BLOCK
  5
20
330
1F
100
AcDbEntity
  8
0
100
AcDbBlockBegin
  2
*MODEL_SPACE
 70
     0
 10
0.0
 20
0.0
 30
0.0
  3
*MODEL_SPACE
  1

  0
ENDBLK
  5
21
330
1F
100
AcDbEntity
  8
0
100
AcDbBlockEnd
  0
BLOCK
  5
1C
330
1B
100
AcDbEntity
 67
     1
  8
0
100
AcDbBlockBegin
  2
*PAPER_SPACE
  1

  0
ENDBLK
  5
1D
330
1B
100
AcDbEntity
 67
     1
  8
0
100
AcDbBlockEnd
  0
ENDSEC
  0
SECTION
  2
ENTITIES
  0
SPLINE
  5
100
100
AcDbEntity
  8
faceshield_v3_Jin
 62
1
100
AcDbSpline
 70
8
 71
3
 72
8
 73
4
 74
0
 40
0
 40
0
 40
0
 40
0
 40
1
 40
1
 40
1
 40
1
 10
390.551872
 20
53.162684
 30
0.0
 10
443.033209
 20
53.162684
 30
0.0
 10
486.089736
 20
93.799155
 30
0.0
 10
490.388333
 20
145.532251
 30
0.0
  0
SPLINE
  5
101
100
AcDbEntity
  8
faceshield_v3_Jin
 62
1
100
AcDbSpline
 70
8
 71
3
 72
8
 73
4
 74
0
 40
0
 40
0
 40
0
 40
0
 40
1
 40
1
 40
1
 40
1
 10
490.388333
 20
145.532251
 30
0.0
 10
490.797908
 20
150.463379
 30
0.0
 10
490.444778
 20
155.430490
 30
0.0
 10
489.399850
 20
160.266367
 30
0.0
  0
SPLINE
  5
102
100
AcDbEntity
  8
faceshield_v3_Jin
 62
1
100
AcDbSpline
 70
8
 71
3
 72
8
 73
4
 74
0
 40
0
 40
0
 40
0
 40
0
 40
1
 40
1
 40
1
 40
1
 10
483.194489
 20
200.395544
 30
0.0
 10
483.194489
 20
201.231274
 30
0.0
 10
483.613236
 20
201.476808
 30
0.0
 10
484.442970
 20
201.476808
 30
0.0
  0
LWPOLYLINE
  5
103
100
AcDbEntity
  8
faceshield_v3_Jin
 62
1
100
AcDbPolyline
 90
3
 70
0
 10
489.399850
 20
160.266367
 30
0.0
 10
484.730131
 20
181.883178
 30
0.0
 10
483.194489
 20
200.395544
 30
0.0
  0
SPLINE
  5
104
100
AcDbEntity
  8
faceshield_v3_Jin
 62
1
100
AcDbSpline
 70
8
 71
3
 72
8
 73
4
 74
0
 40
0
 40
0
 40
0
 40
0
 40
1
 40
1
 40
1
 40
1
 10
484.541395
 20
201.476808
 30
0.0
 10
485.748247
 20
201.476808
 30
0.0
 10
485.596200
 20
200.678119
 30
0.0
 10
485.571153
 20
199.903772
 30
0.0
  0
SPLINE
  5
105
100
AcDbEntity
  8
faceshield_v3_Jin
 62
1
100
AcDbSpline
 70
8
 71
3
 72
8
 73
4
 74
0
 40
0
 40
0
 40
0
 40
0
 40
1
 40
1
 40
1
 40
1
 10
485.571153
 20
199.903772
 30
0.0
 10
485.540108
 20
198.953036
 30
0.0
 10
485.540108
 20
199.490316
 30
0.0
 10
485.533406
 20
198.871191
 30
0.0
  0
SPLINE
  5
106
100
AcDbEntity
  8
faceshield_v3_Jin
 62
1
100
AcDbSpline
 70
8
 71
3
 72
8
 73
4
 74
0
 40
0
 40
0
 40
0
 40
0
 40
1
 40
1
 40
1
 40
1
 10
485.533406
 20
198.871191
 30
0.0
 10
485.506947
 20
196.418680
 30
0.0
 10
485.218375
 20
196.107883
 30
0.0
 10
485.239189
 20
193.840580
 30
0.0
  0
SPLINE
  5
107
100
AcDbEntity
  8
faceshield_v3_Jin
 62
1
100
AcDbSpline
 70
8
 71
3
 72
8
 73
4
 74
0
 40
0
 40
0
 40
0
 40
0
 40
1
 40
1
 40
1
 40
1
 10
485.239189
 20
193.840580
 30
0.0
 10
485.242364
 20
193.493800
 30
0.0
 10
485.243775
 20
193.128675
 30
0.0
 10
485.339025
 20
192.795652
 30
0.0
  0
SPLINE
  5
108
100
AcDbEntity
  8
faceshield_v3_Jin
 62
1
100
AcDbSpline
 70
8
 71
3
 72
8
 73
4
 74
0
 40
0
 40
0
 40
0
 40
0
 40
1
 40
1
 40
1
 40
1
 10
485.339025
 20
192.795652
 30
0.0
 10
485.529878
 20
192.129255
 30
0.0
 10
486.047050
 20
191.872786
 30
0.0
 10
486.720503
 20
192.044589
 30
0.0
  0
SPLINE
  5
109
100
AcDbEntity
  8
faceshield_v3_Jin
 62
1
100
AcDbSpline
 70
8
 71
3
 72
8
 73
4
 74
0
 40
0
 40
0
 40
0
 40
0
 40
1
 40
1
 40
1
 40
1
 10
486.720503
 20
192.044589
 30
0.0
 10
487.060581
 20
192.131019
 30
0.0
 10
487.273658
 20
192.504611
 30
0.0
 10
487.368556
 20
192.845394
 30
0.0
  0
SPLINE
  5
10a
100
AcDbEntity
  8
faceshield_v3_Jin
 62
1
100
AcDbSpline
 70
8
 71
3
 72
8
 73
4
 74
0
 40
0
 40
0
 40
0
 40
0
 40
1
 40
1
 40
1
 40
1
 10
487.368556
 20
192.845394
 30
0.0
 10
488.369739
 20
196.434202
 30
0.0
 10
490.004158
 20
201.932244
 30
0.0
 10
489.998161
 20
205.546452
 30
0.0
  0
SPLINE
  5
10b
100
AcDbEntity
  8
faceshield_v3_Jin
 62
1
100
AcDbSpline
 70
8
 71
3
 72
8
 73
4
 74
0
 40
0
 40
0
 40
0
 40
0
 40
1
 40
1
 40
1
 40
1
 10
489.998161
 20
205.546452
 30
0.0
 10
489.995339
 20
207.203097
 30
0.0
 10
486.870081
 20
208.162299
 30
0.0
 10
485.224725
 20
208.162299
 30
0.0
  0
LWPOLYLINE
  5
10c
100
AcDbEntity
  8
faceshield_v3_Jin
 62
1
100
AcDbPolyline
 90
2
 70
0
 10
484.442970
 20
201.476808
 30
0.0
 10
484.541395
 20
201.476808
 30
0.0
  0
SPLINE
  5
10d
100
AcDbEntity
  8
faceshield_v3_Jin
 62
1
100
AcDbSpline
 70
8
 71
3
 72
8
 73
4
 74
0
 40
0
 40
0
 40
0
 40
0
 40
1
 40
1
 40
1
 40
1
 10
480.716225
 20
208.162299
 30
0.0
 10
479.332984
 20
208.162299
 30
0.0
 10
478.211856
 20
207.032705
 30
0.0
 10
478.211856
 20
205.639938
 30
0.0
  0
LWPOLYLINE
  5
10e
100
AcDbEntity
  8
faceshield_v3_Jin
 62
1
100
AcDbPolyline
 90
2
 70
0
 10
485.224725
 20
208.162299
 30
0.0
 10
480.716225
 20
208.162299
 30
0.0
  0
SPLINE
  5
10f
100
AcDbEntity
  8
faceshield_v3_Jin
 62
1
100
AcDbSpline
 70
8
 71
3
 72
8
 73
4
 74
0
 40
0
 40
0
 40
0
 40
0
 40
1
 40
1
 40
1
 40
1
 10
476.714314
 20
181.883178
 30
0.0
 10
476.714314
 20
134.518176
 30
0.0
 10
437.584557
 20
96.121491
 30
0.0
 10
390.551872
 20
96.121491
 30
0.0
  0
SPLINE
  5
110
100
AcDbEntity
  8
faceshield_v3_Jin
 62
1
100
AcDbSpline
 70
8
 71
3
 72
8
 73
4
 74
0
 40
0
 40
0
 40
0
 40
0
 40
1
 40
1
 40
1
 40
1
 10
390.557728
 20
53.163707
 30
0.0
 10
338.076390
 20
53.163707
 30
0.0
 10
295.019864
 20
93.799825
 30
0.0
 10
290.721267
 20
145.532921
 30
0.0
  0
SPLINE
  5
111
100
AcDbEntity
  8
faceshield_v3_Jin
 62
1
100
AcDbSpline
 70
8
 71
3
 72
8
 73
4
 74
0
 40
0
 40
0
 40
0
 40
0
 40
1
 40
1
 40
1
 40
1
 10
290.721267
 20
145.532921
 30
0.0
 10
290.311339
 20
150.464049
 30
0.0
 10
290.664822
 20
155.431160
 30
0.0
 10
291.709750
 20
160.267037
 30
0.0
  0
LWPOLYLINE
  5
112
100
AcDbEntity
  8
faceshield_v3_Jin
 62
1
100
AcDbPolyline
 90
3
 70
0
 10
478.211856
 20
205.639938
 30
0.0
 10
476.713961
 20
181.883178
 30
0.0
 10
476.714314
 20
181.883178
 30
0.0
  0
SPLINE
  5
113
100
AcDbEntity
  8
faceshield_v3_Jin
 62
1
100
AcDbSpline
 70
8
 71
3
 72
8
 73
4
 74
0
 40
0
 40
0
 40
0
 40
0
 40
1
 40
1
 40
1
 40
1
 10
297.915111
 20
200.396214
 30
0.0
 10
297.915111
 20
201.231945
 30
0.0
 10
297.496364
 20
201.477478
 30
0.0
 10
296.666630
 20
201.477478
 30
0.0
  0
LWPOLYLINE
  5
114
100
AcDbEntity
  8
faceshield_v3_Jin
 62
1
100
AcDbPolyline
 90
3
 70
0
 10
291.709750
 20
160.267037
 30
0.0
 10
296.379469
 20
181.883848
 30
0.0
 10
297.915111
 20
200.396214
 30
0.0
  0
SPLINE
  5
115
100
AcDbEntity
  8
faceshield_v3_Jin
 62
1
100
AcDbSpline
 70
8
 71
3
 72
8
 73
4
 74
0
 40
0
 40
0
 40
0
 40
0
 40
1
 40
1
 40
1
 40
1
 10
296.568205
 20
201.477478
 30
0.0
 10
295.361353
 20
201.477478
 30
0.0
 10
295.513400
 20
200.678789
 30
0.0
 10
295.538447
 20
199.904442
 30
0.0
  0
SPLINE
  5
116
100
AcDbEntity
  8
faceshield_v3_Jin
 62
1
100
AcDbSpline
 70
8
 71
3
 72
8
 73
4
 74
0
 40
0
 40
0
 40
0
 40
0
 40
1
 40
1
 40
1
 40
1
 10
295.538447
 20
199.904442
 30
0.0
 10
295.569844
 20
198.953706
 30
0.0
 10
295.569844
 20
199.490986
 30
0.0
 10
295.576194
 20
198.871861
 30
0.0
  0
SPLINE
  5
117
100
AcDbEntity
  8
faceshield_v3_Jin
 62
1
100
AcDbSpline
 70
8
 71
3
 72
8
 73
4
 74
0
 40
0
 40
0
 40
0
 40
0
 40
1
 40
1
 40
1
 40
1
 10
295.576194
 20
198.871861
 30
0.0
 10
295.602653
 20
196.419350
 30
0.0
 10
295.891225
 20
196.108553
 30
0.0
 10
295.870411
 20
193.841251
 30
0.0
  0
SPLINE
  5
118
100
AcDbEntity
  8
faceshield_v3_Jin
 62
1
100
AcDbSpline
 70
8
 71
3
 72
8
 73
4
 74
0
 40
0
 40
0
 40
0
 40
0
 40
1
 40
1
 40
1
 40
1
 10
295.870411
 20
193.841251
 30
0.0
 10
295.867236
 20
193.494470
 30
0.0
 10
295.865825
 20
193.129345
 30
0.0
 10
295.770575
 20
192.796323
 30
0.0
  0
SPLINE
  5
119
100
AcDbEntity
  8
faceshield_v3_Jin
 62
1
100
AcDbSpline
 70
8
 71
3
 72
8
 73
4
 74
0
 40
0
 40
0
 40
0
 40
0
 40
1
 40
1
 40
1
 40
1
 10
295.770575
 20
192.796323
 30
0.0
 10
295.580075
 20
192.129926
 30
0.0
 10
295.062197
 20
191.873456
 30
0.0
 10
294.389097
 20
192.045259
 30
0.0
  0
SPLINE
  5
11a
100
AcDbEntity
  8
faceshield_v3_Jin
 62
1
100
AcDbSpline
 70
8
 71
3
 72
8
 73
4
 74
0
 40
0
 40
0
 40
0
 40
0
 40
1
 40
1
 40
1
 40
1
 10
294.389097
 20
192.045259
 30
0.0
 10
294.049019
 20
192.131689
 30
0.0
 10
293.835942
 20
192.505281
 30
0.0
 10
293.741044
 20
192.846064
 30
0.0
  0
SPLINE
  5
11b
100
AcDbEntity
  8
faceshield_v3_Jin
 62
1
100
AcDbSpline
 70
8
 71
3
 72
8
 73
4
 74
0
 40
0
 40
0
 40
0
 40
0
 40
1
 40
1
 40
1
 40
1
 10
293.741044
 20
192.846064
 30
0.0
 10
292.739508
 20
196.434873
 30
0.0
 10
291.105442
 20
201.932914
 30
0.0
 10
291.111439
 20
205.547122
 30
0.0
  0
SPLINE
  5
11c
100
AcDbEntity
  8
faceshield_v3_Jin
 62
1
100
AcDbSpline
 70
8
 71
3
 72
8
 73
4
 74
0
 40
0
 40
0
 40
0
 40
0
 40
1
 40
1
 40
1
 40
1
 10
291.111439
 20
205.547122
 30
0.0
 10
291.114261
 20
207.203767
 30
0.0
 10
294.239519
 20
208.162970
 30
0.0
 10
295.884875
 20
208.162970
 30
0.0
  0
LWPOLYLINE
  5
11d
100
AcDbEntity
  8
faceshield_v3_Jin
 62
1
100
AcDbPolyline
 90
2
 70
0
 10
296.666630
 20
201.477478
 30
0.0
 10
296.568205
 20
201.477478
 30
0.0
  0
SPLINE
  5
11e
100
AcDbEntity
  8
faceshield_v3_Jin
 62
1
100
AcDbSpline
 70
8
 71
3
 72
8
 73
4
 74
0
 40
0
 40
0
 40
0
 40
0
 40
1
 40
1
 40
1
 40
1
 10
300.393375
 20
208.162970
 30
0.0
 10
301.776616
 20
208.162970
 30
0.0
 10
302.897744
 20
207.033728
 30
0.0
 10
302.897744
 20
205.640609
 30
0.0
  0
LWPOLYLINE
  5
11f
100
AcDbEntity
  8
faceshield_v3_Jin
 62
1
100
AcDbPolyline
 90
2
 70
0
 10
295.884875
 20
208.162970
 30
0.0
 10
300.393375
 20
208.162970
 30
0.0
  0
SPLINE
  5
120
100
AcDbEntity
  8
faceshield_v3_Jin
 62
1
100
AcDbSpline
 70
8
 71
3
 72
8
 73
4
 74
0
 40
0
 40
0
 40
0
 40
0
 40
1
 40
1
 40
1
 40
1
 10
304.395286
 20
181.883848
 30
0.0
 10
304.395286
 20
134.518846
 30
0.0
 10
343.525043
 20
96.122161
 30
0.0
 10
390.557728
 20
96.122161
 30
0.0
  0
SPLINE
  5
121
100
AcDbEntity
  8
faceshield_v3_Jin
 62
1
100
AcDbSpline
 70
8
 71
3
 72
8
 73
4
 74
0
 40
0
 40
0
 40
0
 40
0
 40
1
 40
1
 40
1
 40
1
 10
390.519840
 20
60.403236
 30
0.0
 10
415.266495
 20
60.403236
 30
0.0
 10
438.533600
 20
70.329697
 30
0.0
 10
456.032435
 20
88.353466
 30
0.0
  0
SPLINE
  5
122
100
AcDbEntity
  8
faceshield_v3_Jin
 62
1
100
AcDbSpline
 70
8
 71
3
 72
8
 73
4
 74
0
 40
0
 40
0
 40
0
 40
0
 40
1
 40
1
 40
1
 40
1
 10
456.032435
 20
88.353466
 30
0.0
 10
473.530918
 20
106.377587
 30
0.0
 10
483.168454
 20
130.342134
 30
0.0
 10
483.168454
 20
155.831739
 30
0.0
  0
LWPOLYLINE
  5
123
100
AcDbEntity
  8
faceshield_v3_Jin
 62
1
100
AcDbPolyline
 90
3
 70
0
 10
302.897744
 20
205.640609
 30
0.0
 10
304.395639
 20
181.883848
 30
0.0
 10
304.395286
 20
181.883848
 30
0.0
  0
SPLINE
  5
124
100
AcDbEntity
  8
faceshield_v3_Jin
 62
1
100
AcDbSpline
 70
8
 71
3
 72
8
 73
4
 74
0
 40
0
 40
0
 40
0
 40
0
 40
1
 40
1
 40
1
 40
1
 10
483.658462
 20
155.831739
 30
0.0
 10
483.658462
 20
130.206667
 30
0.0
 10
473.970479
 20
106.115826
 30
0.0
 10
456.378510
 20
87.996807
 30
0.0
  0
SPLINE
  5
125
100
AcDbEntity
  8
faceshield_v3_Jin
 62
1
100
AcDbSpline
 70
8
 71
3
 72
8
 73
4
 74
0
 40
0
 40
0
 40
0
 40
0
 40
1
 40
1
 40
1
 40
1
 10
456.378510
 20
87.996807
 30
0.0
 10
438.786894
 20
69.876730
 30
0.0
 10
415.398081
 20
59.898058
 30
0.0
 10
390.519840
 20
59.898058
 30
0.0
  0
SPLINE
  5
126
100
AcDbEntity
  8
faceshield_v3_Jin
 62
1
100
AcDbSpline
 70
8
 71
3
 72
8
 73
4
 74
0
 40
0
 40
0
 40
0
 40
0
 40
1
 40
1
 40
1
 40
1
 10
390.530141
 20
60.409762
 30
0.0
 10
365.783486
 20
60.409762
 30
0.0
 10
342.516381
 20
70.336223
 30
0.0
 10
325.017545
 20
88.359992
 30
0.0
  0
SPLINE
  5
127
100
AcDbEntity
  8
faceshield_v3_Jin
 62
1
100
AcDbSpline
 70
8
 71
3
 72
8
 73
4
 74
0
 40
0
 40
0
 40
0
 40
0
 40
1
 40
1
 40
1
 40
1
 10
325.017545
 20
88.359992
 30
0.0
 10
307.519062
 20
106.384114
 30
0.0
 10
297.881526
 20
130.348660
 30
0.0
 10
297.881526
 20
155.838265
 30
0.0
  0
LWPOLYLINE
  5
128
100
AcDbEntity
  8
faceshield_v3_Jin
 62
1
100
AcDbPolyline
 90
4
 70
0
 10
483.168454
 20
155.831739
 30
0.0
 10
483.168454
 20
158.861042
 30
0.0
 10
483.658462
 20
158.861042
 30
0.0
 10
483.658462
 20
155.831739
 30
0.0
  0
SPLINE
  5
129
100
AcDbEntity
  8
faceshield_v3_Jin
 62
1
100
AcDbSpline
 70
8
 71
3
 72
8
 73
4
 74
0
 40
0
 40
0
 40
0
 40
0
 40
1
 40
1
 40
1
 40
1
 10
297.391518
 20
155.838265
 30
0.0
 10
297.391518
 20
130.213194
 30
0.0
 10
307.079501
 20
106.122353
 30
0.0
 10
324.671470
 20
88.003334
 30
0.0
  0
SPLINE
  5
12a
100
AcDbEntity
  8
faceshield_v3_Jin
 62
1
100
AcDbSpline
 70
8
 71
3
 72
8
 73
4
 74
0
 40
0
 40
0
 40
0
 40
0
 40
1
 40
1
 40
1
 40
1
 10
324.671470
 20
88.003334
 30
0.0
 10
342.263086
 20
69.883256
 30
0.0
 10
365.651900
 20
59.904937
 30
0.0
 10
390.530141
 20
59.904937
 30
0.0
  0
LWPOLYLINE
  5
12b
100
AcDbEntity
  8
faceshield_v3_Jin
 62
1
100
AcDbPolyline
 90
4
 70
0
 10
297.881526
 20
155.838265
 30
0.0
 10
297.881526
 20
158.867568
 30
0.0
 10
297.391518
 20
158.867568
 30
0.0
 10
297.391518
 20
155.838265
 30
0.0
  0
ENDSEC
  0
SECTION
  2
OBJECTS
  0
DICTIONARY
  5
C
330
0
100
AcDbDictionary
  3
ACAD_GROUP
350
D
  3
ACAD_MLINESTYLE
350
17
  0
DICTIONARY
  5
D
330
C
100
AcDbDictionary
  0
DICTIONARY
  5
1A
330
C
100
AcDbDictionary
  0
DICTIONARY
  5
17
330
C
100
AcDbDictionary
  3
STANDARD
350
18
  0
DICTIONARY
  5
19
330
C
100
AcDbDictionary
  0
ENDSEC
  0
EOF
