<?xml version="1.0" encoding="UTF-8" standalone="no"?>
<!-- Created with Inkscape (http://www.inkscape.org/) -->

<svg
   xmlns:dc="http://purl.org/dc/elements/1.1/"
   xmlns:cc="http://creativecommons.org/ns#"
   xmlns:rdf="http://www.w3.org/1999/02/22-rdf-syntax-ns#"
   xmlns:svg="http://www.w3.org/2000/svg"
   xmlns="http://www.w3.org/2000/svg"
   xmlns:sodipodi="http://sodipodi.sourceforge.net/DTD/sodipodi-0.dtd"
   xmlns:inkscape="http://www.inkscape.org/namespaces/inkscape"
   version="1.1"
   id="svg815"
   xml:space="preserve"
   width="2267.72"
   height="1511.8134"
   viewBox="0 0 2267.72 1511.8134"
   sodipodi:docname="faceshield_v3_Jin.svg"
   inkscape:version="0.92.4 (5da689c313, 2019-01-14)"><metadata
     id="metadata821"><rdf:RDF><cc:Work
         rdf:about=""><dc:format>image/svg+xml</dc:format><dc:type
           rdf:resource="http://purl.org/dc/dcmitype/StillImage" /><dc:title></dc:title></cc:Work></rdf:RDF></metadata><defs
     id="defs819"><clipPath
       clipPathUnits="userSpaceOnUse"
       id="clipPath831"><path
         d="M 137.43,0.001 H 1700.79 V 1133.859 H 137.43 Z"
         id="path829"
         inkscape:connector-curvature="0" /></clipPath></defs><sodipodi:namedview
     pagecolor="#ffffff"
     bordercolor="#666666"
     borderopacity="1"
     objecttolerance="10"
     gridtolerance="10"
     guidetolerance="10"
     inkscape:pageopacity="0"
     inkscape:pageshadow="2"
     inkscape:window-width="1920"
     inkscape:window-height="1017"
     id="namedview817"
     showgrid="false"
     inkscape:zoom="0.5609158"
     inkscape:cx="1133.86"
     inkscape:cy="755.90668"
     inkscape:window-x="-8"
     inkscape:window-y="-8"
     inkscape:window-maximized="1"
     inkscape:current-layer="g823" /><g
     id="g823"
     inkscape:groupmode="layer"
     inkscape:label="faceshield_v3_Jin"
     transform="matrix(1.3333333,0,0,-1.3333333,0,1511.8133)"><g
       id="g825"><g
         id="g827"
         clip-path="url(#clipPath831)"><g
           id="g833"
           transform="translate(1107.0762,150.6973)"><path
             d="m 0,0 c 148.766,0 270.816,115.19 283.001,261.835 1.161,13.978 0.16,28.058 -2.802,41.766 l -13.237,61.276 -4.353,52.476 c 0,2.369 1.187,3.065 3.539,3.065 h 0.279 c 3.421,0 2.99,-2.264 2.919,-4.459 -0.088,-2.695 -0.088,-1.172 -0.107,-2.927 -0.075,-6.952 -0.893,-7.833 -0.834,-14.26 0.009,-0.983 0.013,-2.018 0.283,-2.962 0.541,-1.889 2.007,-2.616 3.916,-2.129 0.964,0.245 1.568,1.304 1.837,2.27 2.838,10.173 7.471,25.758 7.454,36.003 -0.008,4.696 -8.867,7.415 -13.531,7.415 h -12.78 c -3.921,0 -7.099,-3.202 -7.099,-7.15 l -4.246,-67.342 h 0.001 C 244.24,230.614 133.321,121.773 0,121.773"
             style="fill:none;stroke:#ff0000;stroke-width:1;stroke-linecap:round;stroke-linejoin:round;stroke-miterlimit:10;stroke-dasharray:none;stroke-opacity:1"
             id="path835"
             inkscape:connector-curvature="0" /></g><g
           id="g837"
           transform="translate(1107.0928,150.7002)"><path
             d="m 0,0 c -148.766,0 -270.816,115.189 -283.001,261.834 -1.162,13.978 -0.16,28.058 2.802,41.766 l 13.237,61.276 4.353,52.476 c 0,2.369 -1.187,3.065 -3.539,3.065 h -0.279 c -3.421,0 -2.99,-2.264 -2.919,-4.459 0.089,-2.695 0.089,-1.172 0.107,-2.927 0.075,-6.952 0.893,-7.833 0.834,-14.26 -0.009,-0.983 -0.013,-2.018 -0.283,-2.962 -0.54,-1.889 -2.008,-2.616 -3.916,-2.129 -0.964,0.245 -1.568,1.304 -1.837,2.27 -2.839,10.173 -7.471,25.758 -7.454,36.003 0.008,4.696 8.867,7.415 13.531,7.415 h 12.78 c 3.921,0 7.099,-3.201 7.099,-7.15 l 4.246,-67.342 h -0.001 C -244.24,230.613 -133.321,121.772 0,121.772"
             style="fill:none;stroke:#ff0000;stroke-width:1;stroke-linecap:round;stroke-linejoin:round;stroke-miterlimit:10;stroke-dasharray:none;stroke-opacity:1"
             id="path839"
             inkscape:connector-curvature="0" /></g><g
           id="g841"
           transform="translate(1106.9854,171.2217)"><path
             d="m 0,0 c 70.148,0 136.102,28.138 185.705,79.229 49.602,51.092 76.921,119.023 76.921,191.277 v 8.587 h 1.389 v -8.587 c 0,-72.638 -27.462,-140.927 -77.329,-192.288 C 136.82,26.854 70.521,-1.432 0,-1.432"
             style="fill:none;stroke:#ff0000;stroke-width:1;stroke-linecap:round;stroke-linejoin:round;stroke-miterlimit:10;stroke-dasharray:none;stroke-opacity:1"
             id="path843"
             inkscape:connector-curvature="0" /></g><g
           id="g845"
           transform="translate(1107.0146,171.2402)"><path
             d="m 0,0 c -70.148,0 -136.102,28.138 -185.705,79.229 -49.602,51.092 -76.921,119.023 -76.921,191.277 v 8.587 h -1.389 v -8.587 c 0,-72.638 27.462,-140.927 77.329,-192.288 C -136.82,26.854 -70.521,-1.431 0,-1.431"
             style="fill:none;stroke:#ff0000;stroke-width:1;stroke-linecap:round;stroke-linejoin:round;stroke-miterlimit:10;stroke-dasharray:none;stroke-opacity:1"
             id="path847"
             inkscape:connector-curvature="0" /></g></g></g></g></svg>